<svg width="16" height="16" viewBox="0 0 16 16" fill="none" xmlns="http://www.w3.org/2000/svg">
<g id="Group 82">
<path id="Vector" d="M0.252699 15.2307C0.594496 15.5628 1.1609 15.5628 1.49293 15.2307L7.74293 8.98072L13.9929 15.2307C14.325 15.5628 14.9011 15.5725 15.2332 15.2307C15.5652 14.8889 15.5652 14.3323 15.2332 14.0003L8.98317 7.74049L15.2332 1.49049C15.5652 1.15846 15.575 0.592054 15.2332 0.260023C14.8914 -0.0817742 14.325 -0.0817742 13.9929 0.260023L7.74293 6.51002L1.49293 0.260023C1.1609 -0.0817742 0.58473 -0.0915398 0.252699 0.260023C-0.0793324 0.60182 -0.0793324 1.15846 0.252699 1.49049L6.5027 7.74049L0.252699 14.0003C-0.0793324 14.3323 -0.0890982 14.8987 0.252699 15.2307Z" fill="#4F4F4F"/>
</g>
</svg>
